<mxfile host="app.diagrams.net" agent="Mozilla/5.0 (Windows NT 10.0; Win64; x64) AppleWebKit/537.36 (KHTML, like Gecko) Chrome/135.0.0.0 Safari/537.36" version="26.1.3">
  <diagram name="Page-1" id="lSGF1u1k3wypR4kYBdDz">
    <mxGraphModel dx="880" dy="3768" grid="1" gridSize="10" guides="1" tooltips="1" connect="1" arrows="1" fold="1" page="1" pageScale="1" pageWidth="850" pageHeight="1100" math="0" shadow="0">
      <root>
        <mxCell id="0" />
        <mxCell id="1" parent="0" />
        <mxCell id="CFbLDCY4ZLuh2Sqyp-87-1" value="Shufuti" style="text;html=1;align=center;verticalAlign=middle;whiteSpace=wrap;rounded=0;" parent="1" vertex="1">
          <mxGeometry x="40" y="-3190" width="60" height="30" as="geometry" />
        </mxCell>
        <mxCell id="CFbLDCY4ZLuh2Sqyp-87-2" value="SharApu" style="text;html=1;align=center;verticalAlign=middle;whiteSpace=wrap;rounded=0;" parent="1" vertex="1">
          <mxGeometry x="40" y="-2980" width="60" height="30" as="geometry" />
        </mxCell>
        <mxCell id="CFbLDCY4ZLuh2Sqyp-87-4" value="&lt;h1 style=&quot;margin-top: 0px;&quot;&gt;Shufuti vs SharApu (Home Page)&lt;/h1&gt;" style="text;html=1;whiteSpace=wrap;overflow=hidden;rounded=0;" parent="1" vertex="1">
          <mxGeometry x="210" y="-3270" width="390" height="40" as="geometry" />
        </mxCell>
        <mxCell id="CFbLDCY4ZLuh2Sqyp-87-5" value="Home Page" style="rounded=1;whiteSpace=wrap;html=1;" parent="1" vertex="1">
          <mxGeometry x="100" y="-3100" width="110" height="60" as="geometry" />
        </mxCell>
        <mxCell id="CFbLDCY4ZLuh2Sqyp-87-15" value="Search For A Job Page" style="rounded=1;whiteSpace=wrap;html=1;" parent="1" vertex="1">
          <mxGeometry x="300" y="-3180" width="120" height="60" as="geometry" />
        </mxCell>
        <mxCell id="CFbLDCY4ZLuh2Sqyp-87-16" value="If You wantto Order Work" style="rounded=1;whiteSpace=wrap;html=1;" parent="1" vertex="1">
          <mxGeometry x="300" y="-3100" width="120" height="60" as="geometry" />
        </mxCell>
        <mxCell id="CFbLDCY4ZLuh2Sqyp-87-17" value="Those Who want to receive Work" style="rounded=1;whiteSpace=wrap;html=1;" parent="1" vertex="1">
          <mxGeometry x="300" y="-3010" width="120" height="60" as="geometry" />
        </mxCell>
        <mxCell id="CFbLDCY4ZLuh2Sqyp-87-21" value="Navbar Page" style="html=1;verticalAlign=bottom;endArrow=block;curved=0;rounded=0;entryX=0;entryY=0.5;entryDx=0;entryDy=0;" parent="1" target="CFbLDCY4ZLuh2Sqyp-87-15" edge="1">
          <mxGeometry width="80" relative="1" as="geometry">
            <mxPoint x="210" y="-3070.5" as="sourcePoint" />
            <mxPoint x="290" y="-3070.5" as="targetPoint" />
          </mxGeometry>
        </mxCell>
        <mxCell id="CFbLDCY4ZLuh2Sqyp-87-23" value="NavbarPage" style="html=1;verticalAlign=bottom;endArrow=block;curved=0;rounded=0;entryX=0;entryY=0.5;entryDx=0;entryDy=0;" parent="1" target="CFbLDCY4ZLuh2Sqyp-87-16" edge="1">
          <mxGeometry width="80" relative="1" as="geometry">
            <mxPoint x="210" y="-3070.5" as="sourcePoint" />
            <mxPoint x="290" y="-3070.5" as="targetPoint" />
            <mxPoint as="offset" />
          </mxGeometry>
        </mxCell>
        <mxCell id="CFbLDCY4ZLuh2Sqyp-87-28" value="NavbarPage" style="html=1;verticalAlign=bottom;endArrow=block;curved=0;rounded=0;entryX=0;entryY=0.5;entryDx=0;entryDy=0;exitX=1;exitY=0.5;exitDx=0;exitDy=0;" parent="1" source="CFbLDCY4ZLuh2Sqyp-87-5" target="CFbLDCY4ZLuh2Sqyp-87-17" edge="1">
          <mxGeometry x="-0.5" width="80" relative="1" as="geometry">
            <mxPoint x="220" y="-3070" as="sourcePoint" />
            <mxPoint x="410" y="-3070" as="targetPoint" />
            <Array as="points" />
            <mxPoint as="offset" />
          </mxGeometry>
        </mxCell>
        <mxCell id="CFbLDCY4ZLuh2Sqyp-87-30" value="dispatch" style="html=1;verticalAlign=bottom;endArrow=block;curved=0;rounded=0;exitX=0.5;exitY=0;exitDx=0;exitDy=0;" parent="1" source="CFbLDCY4ZLuh2Sqyp-87-5" edge="1">
          <mxGeometry width="80" relative="1" as="geometry">
            <mxPoint x="110" y="-3150" as="sourcePoint" />
            <mxPoint x="490" y="-3210" as="targetPoint" />
            <Array as="points">
              <mxPoint x="155" y="-3210" />
              <mxPoint x="330" y="-3210" />
            </Array>
          </mxGeometry>
        </mxCell>
        <mxCell id="CFbLDCY4ZLuh2Sqyp-87-33" value="Navbar Button" style="html=1;verticalAlign=bottom;endArrow=block;curved=0;rounded=0;" parent="1" edge="1">
          <mxGeometry width="80" relative="1" as="geometry">
            <mxPoint x="490" y="-3210" as="sourcePoint" />
            <mxPoint x="570" y="-3210" as="targetPoint" />
          </mxGeometry>
        </mxCell>
        <mxCell id="CFbLDCY4ZLuh2Sqyp-87-34" value="Navbar Button" style="html=1;verticalAlign=bottom;endArrow=block;curved=0;rounded=0;entryX=0;entryY=0.5;entryDx=0;entryDy=0;" parent="1" target="CFbLDCY4ZLuh2Sqyp-87-37" edge="1">
          <mxGeometry width="80" relative="1" as="geometry">
            <mxPoint x="490" y="-3210" as="sourcePoint" />
            <mxPoint x="570" y="-3170" as="targetPoint" />
          </mxGeometry>
        </mxCell>
        <mxCell id="CFbLDCY4ZLuh2Sqyp-87-35" value="LogIn" style="rounded=1;whiteSpace=wrap;html=1;" parent="1" vertex="1">
          <mxGeometry x="570" y="-3230" width="110" height="30" as="geometry" />
        </mxCell>
        <mxCell id="CFbLDCY4ZLuh2Sqyp-87-37" value="&lt;span style=&quot;white-space: pre;&quot;&gt;&#x9;&lt;/span&gt;Registration as A Member" style="rounded=1;whiteSpace=wrap;html=1;" parent="1" vertex="1">
          <mxGeometry x="560" y="-3180" width="150" height="50" as="geometry" />
        </mxCell>
        <mxCell id="LYz6bHiGzQ8iUIDvPR2v-1" value="" style="endArrow=classic;html=1;rounded=0;exitX=0.5;exitY=1;exitDx=0;exitDy=0;" parent="1" source="CFbLDCY4ZLuh2Sqyp-87-37" edge="1">
          <mxGeometry width="50" height="50" relative="1" as="geometry">
            <mxPoint x="630" y="-3070" as="sourcePoint" />
            <mxPoint x="680" y="-3100" as="targetPoint" />
            <Array as="points">
              <mxPoint x="635" y="-3100" />
            </Array>
          </mxGeometry>
        </mxCell>
        <mxCell id="LYz6bHiGzQ8iUIDvPR2v-3" value="Membership Registration" style="rounded=1;whiteSpace=wrap;html=1;" parent="1" vertex="1">
          <mxGeometry x="680" y="-3120" width="120" height="60" as="geometry" />
        </mxCell>
        <mxCell id="LYz6bHiGzQ8iUIDvPR2v-8" value="Google" style="rounded=1;whiteSpace=wrap;html=1;" parent="1" vertex="1">
          <mxGeometry x="690" y="-3030" width="120" height="50" as="geometry" />
        </mxCell>
        <mxCell id="LYz6bHiGzQ8iUIDvPR2v-10" value="Japan ID" style="rounded=1;whiteSpace=wrap;html=1;" parent="1" vertex="1">
          <mxGeometry x="690" y="-2960" width="120" height="50" as="geometry" />
        </mxCell>
        <mxCell id="LYz6bHiGzQ8iUIDvPR2v-11" value="" style="endArrow=classic;html=1;rounded=0;exitX=0.404;exitY=1;exitDx=0;exitDy=0;exitPerimeter=0;" parent="1" source="CFbLDCY4ZLuh2Sqyp-87-37" edge="1">
          <mxGeometry width="50" height="50" relative="1" as="geometry">
            <mxPoint x="640" y="-3100" as="sourcePoint" />
            <mxPoint x="620" y="-3010" as="targetPoint" />
          </mxGeometry>
        </mxCell>
        <mxCell id="LYz6bHiGzQ8iUIDvPR2v-12" value="" style="endArrow=classic;html=1;rounded=0;entryX=0;entryY=0.5;entryDx=0;entryDy=0;" parent="1" target="LYz6bHiGzQ8iUIDvPR2v-8" edge="1">
          <mxGeometry width="50" height="50" relative="1" as="geometry">
            <mxPoint x="620" y="-3010" as="sourcePoint" />
            <mxPoint x="680" y="-3005" as="targetPoint" />
          </mxGeometry>
        </mxCell>
        <mxCell id="LYz6bHiGzQ8iUIDvPR2v-13" value="" style="endArrow=classic;html=1;rounded=0;entryX=0;entryY=0.6;entryDx=0;entryDy=0;entryPerimeter=0;" parent="1" target="LYz6bHiGzQ8iUIDvPR2v-10" edge="1">
          <mxGeometry width="50" height="50" relative="1" as="geometry">
            <mxPoint x="620" y="-3010" as="sourcePoint" />
            <mxPoint x="680" y="-2940" as="targetPoint" />
          </mxGeometry>
        </mxCell>
        <mxCell id="LYz6bHiGzQ8iUIDvPR2v-14" value="Register Account With" style="text;html=1;align=center;verticalAlign=middle;whiteSpace=wrap;rounded=0;" parent="1" vertex="1">
          <mxGeometry x="510" y="-3085" width="120" height="30" as="geometry" />
        </mxCell>
        <mxCell id="LYz6bHiGzQ8iUIDvPR2v-15" value="" style="endArrow=classic;html=1;rounded=0;" parent="1" edge="1">
          <mxGeometry width="50" height="50" relative="1" as="geometry">
            <mxPoint x="70" y="-2870" as="sourcePoint" />
            <mxPoint x="750" y="-2910" as="targetPoint" />
            <Array as="points">
              <mxPoint x="750" y="-2870" />
            </Array>
          </mxGeometry>
        </mxCell>
        <mxCell id="LYz6bHiGzQ8iUIDvPR2v-16" value="" style="endArrow=classic;html=1;rounded=0;entryX=0.5;entryY=1;entryDx=0;entryDy=0;" parent="1" target="CFbLDCY4ZLuh2Sqyp-87-2" edge="1">
          <mxGeometry width="50" height="50" relative="1" as="geometry">
            <mxPoint x="70" y="-2870" as="sourcePoint" />
            <mxPoint x="180" y="-2900" as="targetPoint" />
          </mxGeometry>
        </mxCell>
        <mxCell id="LYz6bHiGzQ8iUIDvPR2v-17" value="Not IN SharApu" style="text;html=1;align=center;verticalAlign=middle;whiteSpace=wrap;rounded=0;" parent="1" vertex="1">
          <mxGeometry x="200" y="-2850" width="110" height="30" as="geometry" />
        </mxCell>
        <mxCell id="LYz6bHiGzQ8iUIDvPR2v-18" value="" style="endArrow=classic;html=1;rounded=0;exitX=1;exitY=0.5;exitDx=0;exitDy=0;" parent="1" source="CFbLDCY4ZLuh2Sqyp-87-35" edge="1">
          <mxGeometry width="50" height="50" relative="1" as="geometry">
            <mxPoint x="740" y="-3210" as="sourcePoint" />
            <mxPoint x="760" y="-2750" as="targetPoint" />
            <Array as="points">
              <mxPoint x="830" y="-3215" />
              <mxPoint x="830" y="-2890" />
              <mxPoint x="830" y="-2840" />
              <mxPoint x="760" y="-2840" />
            </Array>
          </mxGeometry>
        </mxCell>
        <mxCell id="LYz6bHiGzQ8iUIDvPR2v-19" value="Default Login For Shufuti" style="text;html=1;align=center;verticalAlign=middle;whiteSpace=wrap;rounded=0;" parent="1" vertex="1">
          <mxGeometry x="630" y="-2810" width="120" height="30" as="geometry" />
        </mxCell>
        <mxCell id="LYz6bHiGzQ8iUIDvPR2v-21" value="" style="endArrow=classic;html=1;rounded=0;" parent="1" edge="1">
          <mxGeometry width="50" height="50" relative="1" as="geometry">
            <mxPoint x="800" y="-2750" as="sourcePoint" />
            <mxPoint x="800" y="-2700" as="targetPoint" />
          </mxGeometry>
        </mxCell>
        <mxCell id="LYz6bHiGzQ8iUIDvPR2v-24" value="" style="endArrow=none;html=1;rounded=0;" parent="1" edge="1">
          <mxGeometry width="50" height="50" relative="1" as="geometry">
            <mxPoint x="620" y="-2750" as="sourcePoint" />
            <mxPoint x="800" y="-2750" as="targetPoint" />
          </mxGeometry>
        </mxCell>
        <mxCell id="LYz6bHiGzQ8iUIDvPR2v-25" value="" style="endArrow=classic;html=1;rounded=0;" parent="1" edge="1">
          <mxGeometry width="50" height="50" relative="1" as="geometry">
            <mxPoint x="620" y="-2750" as="sourcePoint" />
            <mxPoint x="620" y="-2700" as="targetPoint" />
          </mxGeometry>
        </mxCell>
        <mxCell id="LYz6bHiGzQ8iUIDvPR2v-26" value="Login As A Job Seeker" style="rounded=1;whiteSpace=wrap;html=1;" parent="1" vertex="1">
          <mxGeometry x="730" y="-2700" width="120" height="60" as="geometry" />
        </mxCell>
        <mxCell id="LYz6bHiGzQ8iUIDvPR2v-28" value="Login using Username/eamil address and passworrd" style="rounded=1;whiteSpace=wrap;html=1;" parent="1" vertex="1">
          <mxGeometry x="730" y="-2600" width="120" height="120" as="geometry" />
        </mxCell>
        <mxCell id="LYz6bHiGzQ8iUIDvPR2v-29" value="" style="endArrow=classic;html=1;rounded=0;entryX=0.5;entryY=0;entryDx=0;entryDy=0;" parent="1" target="LYz6bHiGzQ8iUIDvPR2v-28" edge="1">
          <mxGeometry width="50" height="50" relative="1" as="geometry">
            <mxPoint x="789.5" y="-2640" as="sourcePoint" />
            <mxPoint x="789.5" y="-2610" as="targetPoint" />
          </mxGeometry>
        </mxCell>
        <mxCell id="LYz6bHiGzQ8iUIDvPR2v-30" value="Login with SNS (Social Networking Service)" style="rounded=1;whiteSpace=wrap;html=1;" parent="1" vertex="1">
          <mxGeometry x="560" y="-2700" width="120" height="100" as="geometry" />
        </mxCell>
        <mxCell id="LYz6bHiGzQ8iUIDvPR2v-31" value="" style="endArrow=classic;html=1;rounded=0;" parent="1" edge="1">
          <mxGeometry width="50" height="50" relative="1" as="geometry">
            <mxPoint x="619.5" y="-2600" as="sourcePoint" />
            <mxPoint x="619.5" y="-2560" as="targetPoint" />
          </mxGeometry>
        </mxCell>
        <mxCell id="LYz6bHiGzQ8iUIDvPR2v-32" value="" style="endArrow=classic;html=1;rounded=0;entryX=1;entryY=0.5;entryDx=0;entryDy=0;" parent="1" target="LYz6bHiGzQ8iUIDvPR2v-34" edge="1">
          <mxGeometry width="50" height="50" relative="1" as="geometry">
            <mxPoint x="620" y="-2560" as="sourcePoint" />
            <mxPoint x="550" y="-2560" as="targetPoint" />
          </mxGeometry>
        </mxCell>
        <mxCell id="LYz6bHiGzQ8iUIDvPR2v-33" value="" style="endArrow=classic;html=1;rounded=0;entryX=1;entryY=0.5;entryDx=0;entryDy=0;" parent="1" target="LYz6bHiGzQ8iUIDvPR2v-35" edge="1">
          <mxGeometry width="50" height="50" relative="1" as="geometry">
            <mxPoint x="619.5" y="-2560" as="sourcePoint" />
            <mxPoint x="550" y="-2500" as="targetPoint" />
            <Array as="points">
              <mxPoint x="620" y="-2480" />
            </Array>
          </mxGeometry>
        </mxCell>
        <mxCell id="LYz6bHiGzQ8iUIDvPR2v-34" value="Login With Google" style="rounded=1;whiteSpace=wrap;html=1;" parent="1" vertex="1">
          <mxGeometry x="425" y="-2590" width="120" height="60" as="geometry" />
        </mxCell>
        <mxCell id="LYz6bHiGzQ8iUIDvPR2v-35" value="Login With Japan ID" style="rounded=1;whiteSpace=wrap;html=1;" parent="1" vertex="1">
          <mxGeometry x="425" y="-2510" width="120" height="60" as="geometry" />
        </mxCell>
        <mxCell id="7Wn31qUXqN-l_yLnbQtK-1" value="" style="endArrow=classic;html=1;rounded=0;entryX=0.019;entryY=0.622;entryDx=0;entryDy=0;entryPerimeter=0;" parent="1" target="LYz6bHiGzQ8iUIDvPR2v-35" edge="1">
          <mxGeometry width="50" height="50" relative="1" as="geometry">
            <mxPoint x="70" y="-2870" as="sourcePoint" />
            <mxPoint x="70" y="-2470" as="targetPoint" />
            <Array as="points">
              <mxPoint x="70" y="-2473" />
            </Array>
          </mxGeometry>
        </mxCell>
        <mxCell id="7Wn31qUXqN-l_yLnbQtK-2" value="Not IN SharApu" style="text;html=1;align=center;verticalAlign=middle;whiteSpace=wrap;rounded=0;" parent="1" vertex="1">
          <mxGeometry x="160" y="-2495" width="120" height="30" as="geometry" />
        </mxCell>
        <mxCell id="7Wn31qUXqN-l_yLnbQtK-4" value="&lt;h1 style=&quot;margin-top: 0px;&quot;&gt;Login for Hierer&lt;/h1&gt;&lt;p&gt;In Shufuti Hierer Login is co mpletely dependent on Registration. This is the main difference between Shufuti and SharApu.&lt;/p&gt;" style="text;html=1;whiteSpace=wrap;overflow=hidden;rounded=0;" parent="1" vertex="1">
          <mxGeometry x="560" y="-2465" width="180" height="175" as="geometry" />
        </mxCell>
        <mxCell id="7Wn31qUXqN-l_yLnbQtK-5" value="" style="endArrow=classic;html=1;rounded=0;fillColor=#dae8fc;strokeColor=#6c8ebf;strokeWidth=4;" parent="1" edge="1">
          <mxGeometry width="50" height="50" relative="1" as="geometry">
            <mxPoint x="720" y="-2750" as="sourcePoint" />
            <mxPoint x="790" y="-2350" as="targetPoint" />
            <Array as="points">
              <mxPoint x="720" y="-2410" />
              <mxPoint x="790" y="-2410" />
            </Array>
          </mxGeometry>
        </mxCell>
        <mxCell id="7Wn31qUXqN-l_yLnbQtK-7" value="Login As A Hierer" style="rounded=1;whiteSpace=wrap;html=1;" parent="1" vertex="1">
          <mxGeometry x="730" y="-2350" width="120" height="60" as="geometry" />
        </mxCell>
        <mxCell id="7Wn31qUXqN-l_yLnbQtK-8" value="" style="endArrow=classic;html=1;rounded=0;entryX=0.5;entryY=0;entryDx=0;entryDy=0;" parent="1" edge="1">
          <mxGeometry width="50" height="50" relative="1" as="geometry">
            <mxPoint x="789.5" y="-2290" as="sourcePoint" />
            <mxPoint x="790" y="-2250" as="targetPoint" />
          </mxGeometry>
        </mxCell>
        <mxCell id="7Wn31qUXqN-l_yLnbQtK-9" value="Login using Username/eamil address and passworrd" style="rounded=1;whiteSpace=wrap;html=1;" parent="1" vertex="1">
          <mxGeometry x="730" y="-2250" width="120" height="120" as="geometry" />
        </mxCell>
        <mxCell id="7Wn31qUXqN-l_yLnbQtK-11" value="&lt;h1 style=&quot;margin-top: 0px;&quot;&gt;Registration and Login in SharApu&lt;/h1&gt;&lt;h1 style=&quot;margin-top: 0px;&quot;&gt;&lt;span style=&quot;font-size: 12px; font-weight: 400;&quot;&gt;Each Member can Register once in SharApu. Once the registration is done the user can change their role between Job Seeker and Hierer. The defaukt login for SharApu will take the user to Job Seeker Profile. There by choosing &quot;Switch Role&quot; button the user can change their role.&lt;/span&gt;&lt;/h1&gt;" style="text;html=1;whiteSpace=wrap;overflow=hidden;rounded=0;" parent="1" vertex="1">
          <mxGeometry x="100" y="-2437" width="400" height="157" as="geometry" />
        </mxCell>
        <mxCell id="yBFr3Lubx84lgWoSp2jj-1" value="After Hero Section&lt;div&gt;&lt;br&gt;&lt;/div&gt;" style="text;html=1;align=center;verticalAlign=middle;whiteSpace=wrap;rounded=0;" vertex="1" parent="1">
          <mxGeometry x="90" y="-2170" width="130" height="30" as="geometry" />
        </mxCell>
        <mxCell id="yBFr3Lubx84lgWoSp2jj-2" value="Shufuti&lt;div&gt;&lt;br&gt;&lt;/div&gt;" style="text;html=1;align=center;verticalAlign=middle;whiteSpace=wrap;rounded=0;" vertex="1" parent="1">
          <mxGeometry x="60" y="-2100" width="60" height="30" as="geometry" />
        </mxCell>
        <mxCell id="yBFr3Lubx84lgWoSp2jj-3" value="SharApu" style="text;html=1;align=center;verticalAlign=middle;whiteSpace=wrap;rounded=0;" vertex="1" parent="1">
          <mxGeometry x="60" y="-1850" width="60" height="30" as="geometry" />
        </mxCell>
        <mxCell id="yBFr3Lubx84lgWoSp2jj-4" value="Interviews from the Housewives and other users who found the earning ways from the system." style="rounded=1;whiteSpace=wrap;html=1;" vertex="1" parent="1">
          <mxGeometry x="180" y="-2000" width="180" height="90" as="geometry" />
        </mxCell>
        <mxCell id="yBFr3Lubx84lgWoSp2jj-5" value="" style="endArrow=classic;html=1;rounded=0;entryX=0.5;entryY=1;entryDx=0;entryDy=0;exitX=1;exitY=0.25;exitDx=0;exitDy=0;" edge="1" parent="1" source="yBFr3Lubx84lgWoSp2jj-3" target="yBFr3Lubx84lgWoSp2jj-4">
          <mxGeometry width="50" height="50" relative="1" as="geometry">
            <mxPoint x="130" y="-1870" as="sourcePoint" />
            <mxPoint x="450" y="-2080" as="targetPoint" />
          </mxGeometry>
        </mxCell>
        <mxCell id="yBFr3Lubx84lgWoSp2jj-6" value="" style="endArrow=classic;html=1;rounded=0;entryX=0.5;entryY=0;entryDx=0;entryDy=0;" edge="1" parent="1" target="yBFr3Lubx84lgWoSp2jj-4">
          <mxGeometry width="50" height="50" relative="1" as="geometry">
            <mxPoint x="100" y="-2080" as="sourcePoint" />
            <mxPoint x="150" y="-2130" as="targetPoint" />
          </mxGeometry>
        </mxCell>
        <mxCell id="yBFr3Lubx84lgWoSp2jj-7" value="+" style="text;html=1;align=center;verticalAlign=middle;whiteSpace=wrap;rounded=0;" vertex="1" parent="1">
          <mxGeometry x="360" y="-1970" width="50" height="20" as="geometry" />
        </mxCell>
        <mxCell id="yBFr3Lubx84lgWoSp2jj-8" value="3 Reasons to choose the System." style="rounded=1;whiteSpace=wrap;html=1;" vertex="1" parent="1">
          <mxGeometry x="410" y="-1985" width="120" height="60" as="geometry" />
        </mxCell>
        <mxCell id="yBFr3Lubx84lgWoSp2jj-9" value="+" style="text;html=1;align=center;verticalAlign=middle;whiteSpace=wrap;rounded=0;" vertex="1" parent="1">
          <mxGeometry x="545" y="-1970" width="50" height="20" as="geometry" />
        </mxCell>
        <mxCell id="yBFr3Lubx84lgWoSp2jj-10" value="Projects and Task Showcase; Start now for free" style="rounded=1;whiteSpace=wrap;html=1;" vertex="1" parent="1">
          <mxGeometry x="600" y="-1990" width="120" height="60" as="geometry" />
        </mxCell>
        <mxCell id="yBFr3Lubx84lgWoSp2jj-11" value="+" style="text;html=1;align=center;verticalAlign=middle;whiteSpace=wrap;rounded=0;" vertex="1" parent="1">
          <mxGeometry x="635" y="-1890" width="50" height="20" as="geometry" />
        </mxCell>
        <mxCell id="yBFr3Lubx84lgWoSp2jj-12" value="Job Category List" style="rounded=1;whiteSpace=wrap;html=1;" vertex="1" parent="1">
          <mxGeometry x="600" y="-1850" width="120" height="60" as="geometry" />
        </mxCell>
        <mxCell id="yBFr3Lubx84lgWoSp2jj-13" value="+" style="text;html=1;align=center;verticalAlign=middle;whiteSpace=wrap;rounded=0;" vertex="1" parent="1">
          <mxGeometry x="635" y="-1750" width="50" height="20" as="geometry" />
        </mxCell>
        <mxCell id="yBFr3Lubx84lgWoSp2jj-14" value="Footer" style="rounded=1;whiteSpace=wrap;html=1;" vertex="1" parent="1">
          <mxGeometry x="600" y="-1680" width="120" height="60" as="geometry" />
        </mxCell>
      </root>
    </mxGraphModel>
  </diagram>
</mxfile>
